<svg width="24" height="24" viewBox="0 0 24 24" fill="none" xmlns="http://www.w3.org/2000/svg">
<path fill-rule="evenodd" clip-rule="evenodd" d="M12 2C6.47715 2 2 6.47715 2 12C2 17.5228 6.47715 22 12 22C17.5228 22 22 17.5228 22 12C22 6.47715 17.5228 2 12 2ZM12.3993 15.6401C12.0829 15.9565 12.0829 16.4695 12.3993 16.7858C12.7157 17.1022 13.2287 17.1022 13.5451 16.7858L17.7581 12.5729C18.0745 12.2565 18.0745 11.7435 17.7581 11.4271L13.5451 7.21415C13.2287 6.89775 12.7157 6.89775 12.3993 7.21415C12.0829 7.53054 12.0829 8.04352 12.3993 8.35992L15.2292 11.1898H6.81481C6.36736 11.1898 6.00463 11.5525 6.00463 12C6.00463 12.4475 6.36736 12.8102 6.81481 12.8102L15.2292 12.8102L12.3993 15.6401Z" fill="#1C1C1E"/>
</svg>
