<svg width="24" height="24" viewBox="0 0 24 24" fill="none" xmlns="http://www.w3.org/2000/svg">
<path fill-rule="evenodd" clip-rule="evenodd" d="M19.2478 4.75216C19.7359 5.24032 19.7359 6.03178 19.2478 6.51993L13.7677 12L19.2478 17.4801C19.7359 17.9682 19.7359 18.7597 19.2478 19.2479C18.7596 19.736 17.9682 19.736 17.48 19.2479L11.9999 13.7678L6.51987 19.2479C6.03171 19.736 5.24026 19.736 4.7521 19.2479C4.26395 18.7597 4.26395 17.9682 4.7521 17.4801L10.2322 12L4.7521 6.51993C4.26395 6.03178 4.26395 5.24032 4.7521 4.75216C5.24026 4.26401 6.03171 4.26401 6.51987 4.75216L11.9999 10.2322L17.48 4.75216C17.9682 4.26401 18.7596 4.26401 19.2478 4.75216Z" fill="#1C1C1E"/>
</svg>
