<svg width="44" height="44" viewBox="0 0 44 44" fill="none" xmlns="http://www.w3.org/2000/svg">
<path fill-rule="evenodd" clip-rule="evenodd" d="M22 0C4.4 0 0 4.4 0 22C0 39.6 4.4 44 22 44C39.6 44 44 39.6 44 22C44 4.4 39.6 0 22 0ZM27.7065 24.2051C27.5774 25.4322 27.5569 26.4933 27.8586 27.7002C28.3534 29.1536 29.6393 30.2475 31.2043 30.2475C32.9517 30.2475 34.1504 29.716 35.3004 28.357C35.7819 27.7233 36.0227 27.115 36.0227 26.5321C36.0227 26.0537 35.8438 25.3939 35.4997 25.0416C35.1353 24.6683 34.5674 24.5496 34.0458 24.5496C33.5135 24.5496 32.2969 25.2014 32.2969 25.2014C32.2969 25.2014 32.0787 25.3997 32.0787 24.8108C32.0787 24.4584 32.1457 24.0121 32.2797 23.1193C32.2998 22.9848 32.3216 22.8403 32.3448 22.6843C32.3534 22.6308 32.3623 22.5767 32.3712 22.5221C32.5646 21.338 32.7989 19.9037 32.3448 18.7684C31.8379 17.5518 31.0268 16.9435 29.9116 16.9435C29.0744 16.9435 28.354 17.2746 27.6685 17.7419C27.1109 18.0968 26.3505 18.7051 25.3874 19.5668C25.2962 19.6414 25.2054 19.7215 25.1186 19.7981C24.6842 20.1814 24.3486 20.4774 24.551 19.5668C24.7156 18.6206 24.8283 17.4061 24.475 16.4873C24.1708 15.803 23.7146 15.3214 23.1063 15.0426C22.3771 14.678 21.431 14.6959 20.6731 14.9666C19.6339 15.3468 18.0879 16.538 16.0349 18.5403C15.2587 19.3164 15.2929 19.217 15.544 18.4858C15.5775 18.3883 15.6149 18.2796 15.6547 18.1601C15.6627 18.1425 15.6707 18.1248 15.6788 18.1071C15.984 17.4361 16.339 16.6558 16.339 15.9171C16.339 14.7214 15.3195 13.75 14.1339 13.75C13.0676 13.75 12.3885 14.5022 12.0049 15.4228C11.583 16.351 11.243 17.3163 10.9041 18.279C10.8152 18.5313 10.7264 18.7834 10.6362 19.0346C8.86205 23.7742 7.97496 26.7016 7.97496 27.8168C7.97496 29.0806 8.82671 30.1952 10.142 30.25C11.3107 30.25 12.0108 29.6113 12.7273 28.8053C13.1581 28.3491 13.6397 27.8168 14.172 27.2085C15.1858 26.0173 16.1743 24.8894 17.1374 23.8249C18.1005 22.735 18.7722 22.0127 19.1524 21.6578C19.3679 21.4423 19.5717 21.3123 19.4565 21.6578C19.3551 22.0127 19.2157 22.5703 19.0383 23.3306C18.7342 24.4459 18.5821 25.3076 18.5821 25.9159C18.5821 26.8946 19.0835 27.7437 20.0268 28.121C21.2725 28.6192 22.5413 27.9133 23.4865 27.1325C24.5822 26.2651 25.6119 25.3093 26.6377 24.3572C26.8292 24.1794 27.0206 24.0018 27.2123 23.8249C27.8084 23.3139 27.7886 23.4873 27.7202 24.0848C27.7158 24.1232 27.7112 24.1633 27.7065 24.2051Z" fill="#1B1B1D"/>
</svg>
