<svg width="308" height="110" viewBox="0 0 308 110" fill="none" xmlns="http://www.w3.org/2000/svg">
<path d="M61.6093 37.8232L58.9578 54.7839C62.2878 47.9636 65.8452 41.4598 69.9388 34.8291C72.4992 30.739 75.0181 25.4608 79.662 25.2986C83.1179 25.178 86.3554 28.0925 86.4799 31.6564C86.4987 32.1964 86.4134 32.8482 86.328 33.4999C83.5873 51.0044 83.3305 68.4221 83.9452 86.0256C84.0697 89.5895 81.1514 92.719 77.5874 92.8435C73.9155 92.9717 70.786 90.0534 70.6616 86.4895C70.4277 79.7937 70.1977 73.2058 70.4384 61.5195C65.3968 71.9678 60.4934 83.2763 56.8784 94.3236C55.8036 97.605 53.3762 99.3117 50.5683 99.4097C47.0044 99.5342 43.9791 96.5041 43.8584 93.0482C43.485 82.3565 44.0836 71.6308 45.118 60.9981C38.1452 74.9739 30.8861 90.0411 25.9991 104.917C25.1252 107.759 22.9289 109.89 19.905 109.996C16.3411 110.12 13.0031 107.426 12.8673 103.538C12.7353 99.7577 13.0353 95.9627 13.3353 92.1677C15.0989 71.4535 19.7822 50.7455 24.7004 30.5699C21.6741 33.7032 18.7595 36.9407 16.061 40.1707C13.5709 43.1771 11.5391 46.9245 7.65124 47.0602C3.97934 47.1885 0.741825 44.2739 0.613599 40.602C0.545715 38.6581 1.25644 37.3357 2.39538 35.8903C8.90881 27.3369 21.6319 13.9171 32.8194 6.06555C33.8767 5.37985 34.9454 5.01815 36.0253 4.98044C39.9132 4.84467 42.8305 7.87853 42.9512 11.3344C43.0116 13.0624 41.55 17.6548 40.8958 20.5972L32.432 56.8996L45.1873 32.0171C47.0105 28.4933 51.099 18.6189 56.2829 18.4379C60.9267 18.2757 63.3267 21.9764 63.436 25.1084C63.4549 25.6483 63.362 26.0841 61.6093 37.8232Z" fill="#7E8E99"/>
<path d="M103.25 78.4313C105.518 78.3521 111.107 68.1009 116.075 67.9274C119.638 67.8029 122.98 70.6057 123.112 74.3856C123.282 79.2455 111.605 91.6556 102.533 91.9724C94.9733 92.2364 90.2187 86.1309 89.9811 79.3271C89.619 68.9594 94.374 50.3033 99.1368 41.1623C100.246 38.8529 102.912 37.7866 104.964 37.7149C108.419 37.5943 111.657 40.5088 111.785 44.1807C111.804 44.7207 111.719 45.3725 111.12 46.799C108.151 54.688 102.929 69.2515 103.25 78.4313ZM110.302 32.6627C106.846 32.7834 103.504 29.9806 103.372 26.2007C103.353 25.6607 103.439 25.009 105.368 18.3457C106.235 15.2879 108.547 13.3689 111.463 13.2671C115.134 13.1389 118.376 16.1614 118.5 19.7254C118.519 20.2653 118.43 20.8091 116.504 27.5803C115.637 30.6382 113.218 32.5609 110.302 32.6627Z" fill="#7E8E99"/>
<path d="M132 52.2332C129.074 55.1468 126.259 64.3279 126.519 71.7797C126.614 74.4796 127.163 77.8125 129.214 77.7408C134.29 77.5635 139.666 73.5913 143.466 67.8359C144.698 65.9547 146.481 64.3786 149.073 64.2881C152.745 64.1599 155.882 67.2942 156.006 70.8581C156.044 71.9381 155.866 73.0256 155.252 74.0202C149.833 82.9679 139.614 90.6775 129.354 91.0358C118.555 91.4129 113.679 81.8515 113.344 72.2398C112.816 57.1202 119.992 39.6771 134.031 39.1868C141.591 38.9228 145.355 44.5222 145.562 50.4621C145.691 54.134 145.252 63.2321 138.988 63.4509C134.452 63.6093 132.158 56.7691 132 52.2332Z" fill="#7E8E99"/>
<path d="M183.263 73.7989C190.71 70.295 189.23 58.885 196.142 58.6437C199.814 58.5154 203.051 61.43 203.175 64.9939C203.198 65.6419 203.109 66.1856 202.916 66.8412C200.406 75.471 193.986 86.7243 183.835 87.0788C174.331 87.4107 170.217 81.0666 169.949 73.3988C170.067 70.5834 170.509 67.7566 171.063 65.034C166.532 68.4361 163.399 74.7089 163.753 84.8606C163.87 88.2085 161.049 91.0102 157.269 91.1422C149.817 91.4025 148.769 79.9774 148.226 64.4258C147.581 45.9583 151.785 26.9971 157.55 9.38702C158.624 6.10562 161.268 4.39138 163.968 4.2971C166.884 4.19527 170.534 6.55475 170.681 10.7666C170.7 11.3066 170.615 11.9584 170.526 12.5021C166.245 26.1677 162.412 40.2502 161.614 54.5511C164.375 50.0214 168.923 44.0236 175.187 43.8049C181.883 43.571 185.65 49.2784 185.843 54.7863C186.062 61.0501 183.078 68.5071 183.263 73.7989Z" fill="#7E8E99"/>
<path d="M200.987 75.3426C209.082 71.816 215.549 58.5692 215.549 58.5692C226.267 58.1949 225.872 63.8769 225.872 63.8769C225.722 64.9072 219.474 74.2009 226.042 74.4676C231.658 74.2715 233.766 66.5207 238.95 66.3397C242.514 66.2153 245.852 68.91 245.988 72.7979C246.108 76.2539 242.859 79.1787 240.026 81.6565C236.348 84.7044 231.686 87.4622 226.718 87.6357C222.614 87.779 216.815 85.819 214.281 81.3661C210.625 85.062 206.098 88.5721 200.915 88.7531C193.463 89.0133 187.979 83.6902 187.707 75.9145C187.281 63.7108 200.556 44.4327 211.748 36.6892C214.808 34.5279 218.319 32.8915 221.667 32.7745C228.363 32.5407 233.095 37.9982 233.325 44.586C233.584 52.0085 225.872 63.8769 225.872 63.8769C225.872 63.8769 218.742 65.2309 215.549 58.5692C215.549 58.5692 218.649 50.5765 219.855 45.9214C213.47 48.8476 200.651 65.7308 200.987 75.3426Z" fill="#7E8E99"/>
<path d="M245.553 65.5685C245.905 69.4488 247.996 73.5928 252.208 73.4458C255.556 73.3289 259.588 71.1336 261.788 69.1104C264.614 66.4167 266.534 62.5651 270.637 62.4218C274.201 62.2974 277.536 64.8842 277.683 69.096C277.72 70.176 277.434 71.2673 276.924 72.1501C271.673 79.6863 261.96 86.4051 252.564 86.7332C240.252 87.1631 232.52 76.2959 232.079 63.6602C231.536 48.1086 241.112 34.3662 254.071 33.9137C262.711 33.612 266.96 40.7082 267.175 46.8641C267.507 56.3678 259.4 65.7337 250.004 66.0618C248.492 66.1146 247.08 65.9477 245.553 65.5685ZM253.85 46.14C249.422 46.2946 246.333 50.7276 246.144 54.6268C251.22 54.4496 254.027 51.2158 253.85 46.14Z" fill="#7E8E99"/>
<path d="M300.455 56.8392C303.911 56.7185 307.26 59.7373 307.388 63.4092C307.407 63.9491 307.318 64.4929 307.229 65.0367C304.31 74.3296 295.503 85.3418 286.324 85.6624C274.984 86.0584 270.164 74.9813 269.707 61.9137C269.108 44.7421 275.127 22.0411 278.816 10.0181C280.173 5.53742 281.717 0.185214 286.901 0.00418936C290.032 -0.10518 293.78 1.92654 293.927 6.13843C293.968 7.3264 293.578 8.52945 293.079 9.73628C289.3 19.1673 282.422 45.1422 282.98 61.1258C283.04 62.8537 283.376 72.4655 285.86 72.3787C293.296 71.6865 293.435 57.0843 300.455 56.8392Z" fill="#7E8E99"/>
</svg>
